<?xml version="1.0" encoding="utf-8"?>
<svg version="1.1" width="1000" height="1000" xmlns="http://www.w3.org/2000/svg">
  <rect width="1000" height="1000" rx="200" ry="200" fill="#bdfbff"/>
  <path fill="black" d="M 298.849 286.23 L 287.229 297.866 L 25.913 297.866 L 30.044 303.124 C 49.239 327.691 82.377 361.48 104.755 379.409 C 123.778 394.58 145.21 407.769 161.306 414.147 C 175.679 419.836 206.838 427.68 229.991 431.387 C 258.395 436.041 288.262 438.886 321.056 440.093 C 347.222 441.041 357.981 442.334 371.752 446.213 C 402.05 454.746 421.158 471.555 427.183 495.087 C 429.421 503.965 429.421 517.671 427.097 526.808 C 423.568 540.685 413.325 557.494 398.091 574.216 C 377.089 597.317 337.409 626.538 297.127 648.605 C 288.176 653.518 286.11 655.156 275.437 665.758 L 263.559 677.567 L 263.559 725.407 L 381.306 725.407 L 386.213 722.476 C 401.964 712.909 435.274 705.926 479.171 702.91 C 500.001 701.53 553.366 701.789 574.712 703.427 C 604.321 705.668 626.355 709.288 643.57 714.805 C 652.952 717.822 664.055 722.821 665.087 724.545 C 665.432 725.149 685.487 725.407 725.425 725.407 L 785.159 725.407 L 785.159 678.171 L 777.154 670.758 C 749.697 645.502 717.592 621.539 693.061 608.178 C 676.794 599.386 668.1 591.111 659.666 576.716 C 650.455 561.114 643.397 534.996 643.053 516.205 C 642.967 508.016 645.98 498.104 653.124 483.192 C 671.544 444.747 703.476 416.474 743.5 403.114 C 766.826 395.27 779.65 393.718 825.613 392.684 C 859.268 391.908 873.297 391.219 891.458 389.15 C 919.604 386.047 941.639 379.84 948.352 373.117 L 951.279 370.186 L 951.279 322.002 L 953.689 321.485 C 960.747 319.933 962.726 319.157 966.084 316.571 C 968.149 315.02 970.732 312.003 971.937 309.934 C 973.916 306.314 974.088 305.193 974.088 294.418 C 974.088 281.058 973.399 279.248 967.374 276.576 C 963.931 275.11 951.796 275.024 637.114 274.765 L 310.469 274.593 L 298.849 286.23 Z" style=""/>
</svg>